<svg xmlns="http://www.w3.org/2000/svg" viewBox="0 0 100 100">
  <!-- Background Circle -->
  <circle cx="50" cy="50" r="48" fill="#1a5f7a" />
  <circle cx="50" cy="50" r="45" fill="#86c232" />
  
  <!-- Recycling Symbol -->
  <g transform="translate(50, 70) scale(0.5) rotate(0)">
    <path d="M0,-15 L8,-7 L3,-7 C3,1 7,8 15,8 L15,15 C2,15 -7,6 -7,-7 L-12,-7 Z" fill="#ffffff" />
    <path d="M13,-8 L13,-15 C-2,-15 -12,-8 -15,5 L-8,7 C-6,-2 0,-8 8,-8 L8,-13 Z" fill="#ffffff" />
    <path d="M-9,12 L-15,7 C-10,-8 5,-15 15,0 L12,7 C5,-3 -4,2 -2,12 L3,12 Z" fill="#ffffff" />
  </g>
  
  <!-- Windmill -->
  <g transform="translate(50, 40)">
    <!-- Tower -->
    <path d="M-3,0 L3,0 L5,25 L-5,25 Z" fill="#ffffff" />
    
    <!-- Blades -->
    <g transform="rotate(0)">
      <path d="M0,0 L-5,-5 L-25,-30 L-22,-35 L0,-10 Z" fill="#ffffff" />
    </g>
    <g transform="rotate(120)">
      <path d="M0,0 L-5,-5 L-25,-30 L-22,-35 L0,-10 Z" fill="#ffffff" />
    </g>
    <g transform="rotate(240)">
      <path d="M0,0 L-5,-5 L-25,-30 L-22,-35 L0,-10 Z" fill="#ffffff" />
    </g>
  </g>
  
  <!-- Letter E for ERGSEC -->
  <path d="M71,22 h-20 v5 h17 v5 h-17 v5 h20 v5 h-25 v-25 h25 Z" fill="#ffffff" />
</svg>